M48
INCH
T25C0.020
T24C0.035
%
T25
X006650Y017150
X013550Y004800
X014400Y004800
X016000Y005650
T24
X018650Y006150
X017250Y006150
X004079Y006381
X002679Y006381
X001600Y009150
X003000Y009150
X005800Y003650
X009600Y001750
X008200Y001750
X013250Y001750
X011850Y001750
X004400Y003650
X013550Y019750
X012650Y018650
X007900Y017750
X011300Y019900
X015050Y003200
X007900Y013750
X017900Y013650
X019300Y013650
X007100Y017950
X006250Y018150
X004850Y018150
X007100Y013950
X003300Y013950
X001900Y013950
X013550Y015750
X012650Y014650
X014450Y018400
X015850Y018400
X009300Y019900
X008300Y019900
X010300Y019900
X016450Y003200
X019650Y009400
X018250Y009400
M30
