G04 start of page 3 for group 1 idx 1 *
G04 Title: (unknown), solder *
G04 Creator: pcb 20110918 *
G04 CreationDate: Tue Jul 31 21:11:32 2012 UTC *
G04 For: frankenteddy *
G04 Format: Gerber/RS-274X *
G04 PCB-Dimensions: 212500 212500 *
G04 PCB-Coordinate-Origin: lower left *
%MOIN*%
%FSLAX25Y25*%
%LNBOTTOM*%
%ADD22C,0.0350*%
%ADD21C,0.0200*%
%ADD20C,0.0360*%
%ADD19C,0.0700*%
%ADD18C,0.0001*%
%ADD17C,0.0100*%
G54D17*X136000Y152000D02*X92000D01*
X115500Y186500D02*X126500D01*
X134000Y184500D02*Y176000D01*
X135500Y162000D02*Y157500D01*
X71000Y187000D02*Y179500D01*
X66500Y171500D02*X129500D01*
X54500Y167500D02*X130000D01*
X87500Y193500D02*Y186000D01*
X117500Y194500D02*X132500D01*
X153000Y189500D02*X139000D01*
X62500Y181500D02*Y175500D01*
X48500Y181500D02*Y173500D01*
X40000Y146500D02*Y173000D01*
X19000Y144500D02*X28000D01*
X14000Y139500D02*Y136000D01*
X25500Y133000D02*X64500D01*
X182000Y66500D02*X140000D01*
X164500D02*X147375D01*
X164500D02*Y32000D01*
X143500Y48000D02*X152000D01*
X170500Y94000D02*Y127000D01*
X180000Y54000D02*X186500D01*
X194500Y62500D02*Y87000D01*
X140000Y18000D02*Y66500D01*
X144500Y184000D02*Y161000D01*
X183500Y127000D02*X146000D01*
X158500Y184000D02*Y156500D01*
X105000Y101500D02*Y152000D01*
X133000Y10500D02*X79000D01*
X96000Y33500D02*Y17500D01*
X128000Y12500D02*X87000D01*
X118500Y17500D02*X96000D01*
X67000Y27000D02*X72500D01*
X52000D02*X57500D01*
X66000Y18500D02*X73000D01*
X33500Y88000D02*Y63000D01*
X46000Y51500D02*X78000D01*
X38500Y47000D02*X41000D01*
X44000Y43500D02*Y36000D01*
X132500Y17500D02*Y45000D01*
X30000Y120000D02*Y91000D01*
X51500Y74000D02*Y133000D01*
X22500Y68000D02*Y85000D01*
X26500Y59500D02*Y63500D01*
X27000Y64000D01*
X67000Y171500D02*G75*G02X62500Y176000I0J4500D01*G01*
X66000Y18500D02*G75*G02X60000Y24500I0J6000D01*G01*
G75*G03X57500Y27000I-2500J0D01*G01*
X58000Y36500D02*G75*G03X67500Y27000I9500J0D01*G01*
X48500Y173500D02*G75*G03X54500Y167500I6000J0D01*G01*
X48500Y181500D02*G75*G03X40000Y173000I0J-8500D01*G01*
X33000Y139500D02*G75*G03X40000Y146500I0J7000D01*G01*
X33000Y139500D02*G75*G03X28000Y144500I-5000J0D01*G01*
X14000Y139500D02*G75*G02X19000Y144500I5000J0D01*G01*
Y131000D02*G75*G02X14000Y136000I0J5000D01*G01*
X19000Y131000D02*G75*G02X30000Y120000I0J-11000D01*G01*
X19000Y139500D02*G75*G03X25500Y133000I6500J0D01*G01*
X71000Y139500D02*G75*G02X64500Y133000I-6500J0D01*G01*
X41000Y63500D02*G75*G03X51500Y74000I0J10500D01*G01*
X26788Y63812D02*G75*G02X22500Y68100I0J4288D01*G01*
X33500Y64000D02*G75*G03X46000Y51500I12500J0D01*G01*
X39000Y47000D02*G75*G02X26500Y59500I0J12500D01*G01*
X40500Y47000D02*G75*G02X44000Y43500I0J-3500D01*G01*
X53000Y27000D02*G75*G02X44000Y36000I0J9000D01*G01*
X16000Y91500D02*G75*G02X22500Y85000I0J-6500D01*G01*
X30000Y91500D02*G75*G02X33500Y88000I0J-3500D01*G01*
X113000Y199000D02*G75*G03X117500Y194500I4500J0D01*G01*
X135500Y197500D02*G75*G02X132500Y194500I-3000J0D01*G01*
X158500Y184000D02*G75*G03X153000Y189500I-5500J0D01*G01*
X139000D02*G75*G03X134000Y184500I0J-5000D01*G01*
X83000Y199000D02*G75*G03X71000Y187000I0J-12000D01*G01*
X93000Y199000D02*G75*G03X87500Y193500I0J-5500D01*G01*
X79000Y177500D02*G75*G03X87500Y186000I0J8500D01*G01*
X103000Y199000D02*G75*G03X115500Y186500I12500J0D01*G01*
X130000Y167500D02*G75*G02X135500Y162000I0J-5500D01*G01*
Y152000D02*G75*G03X144500Y161000I0J9000D01*G01*
X126500Y146500D02*G75*G03X146000Y127000I19500J0D01*G01*
X134000Y176500D02*G75*G02X129000Y171500I-5000J0D01*G01*
X132500Y17500D02*G75*G02X127500Y12500I-5000J0D01*G01*
X132000Y10500D02*G75*G03X140000Y18500I0J8000D01*G01*
X135500Y48000D02*G75*G03X132500Y45000I0J-3000D01*G01*
X79000Y137500D02*G75*G02X93500Y152000I14500J0D01*G01*
X77000Y51500D02*G75*G02X96000Y32500I0J-19000D01*G01*
X82000Y17500D02*G75*G03X72500Y27000I-9500J0D01*G01*
X82000Y17500D02*G75*G03X87000Y12500I5000J0D01*G01*
X81000Y10500D02*G75*G02X76000Y15500I0J5000D01*G01*
G75*G03X73000Y18500I-3000J0D01*G01*
X196500Y94000D02*G75*G02X183500Y81000I-13000J0D01*G01*
G75*G02X170500Y94000I0J13000D01*G01*
X140000Y66500D02*G75*G02X105000Y101500I0J35000D01*G01*
X194500Y62500D02*G75*G02X186000Y54000I-8500J0D01*G01*
X172500Y61500D02*G75*G03X180000Y54000I7500J0D01*G01*
X151500Y48000D02*G75*G03X156000Y52500I0J4500D01*G01*
G75*G02X160000Y56500I4000J0D01*G01*
X186500Y61500D02*G75*G03X181500Y66500I-5000J0D01*G01*
X193000Y136500D02*G75*G02X183500Y127000I-9500J0D01*G01*
X179000Y136500D02*G75*G02X158500Y157000I0J20500D01*G01*
G54D18*G36*
X147000Y35500D02*Y28500D01*
X154000D01*
Y35500D01*
X147000D01*
G37*
G54D19*X164500Y32000D03*
G54D18*G36*
X193000Y97500D02*Y90500D01*
X200000D01*
Y97500D01*
X193000D01*
G37*
G54D19*X182500Y94000D03*
G54D18*G36*
X183000Y65000D02*Y58000D01*
X190000D01*
Y65000D01*
X183000D01*
G37*
G54D19*X172500Y61500D03*
G54D18*G36*
X37288Y67312D02*Y60312D01*
X44288D01*
Y67312D01*
X37288D01*
G37*
G54D19*X26788Y63812D03*
G54D18*G36*
X12500Y95000D02*Y88000D01*
X19500D01*
Y95000D01*
X12500D01*
G37*
G54D19*X30000Y91500D03*
G54D18*G36*
X54500Y40000D02*Y33000D01*
X61500D01*
Y40000D01*
X54500D01*
G37*
G36*
X92500Y21000D02*Y14000D01*
X99500D01*
Y21000D01*
X92500D01*
G37*
G54D19*X82000Y17500D03*
G54D18*G36*
X129000Y21000D02*Y14000D01*
X136000D01*
Y21000D01*
X129000D01*
G37*
G54D19*X118500Y17500D03*
X44000Y36500D03*
X135500Y197500D03*
X126500Y186500D03*
X79000Y177500D03*
X113000Y199000D03*
X103000D03*
X79000Y137500D03*
G54D18*G36*
X175500Y140000D02*Y133000D01*
X182500D01*
Y140000D01*
X175500D01*
G37*
G54D19*X193000Y136500D03*
X71000Y179500D03*
G54D18*G36*
X59000Y185000D02*Y178000D01*
X66000D01*
Y185000D01*
X59000D01*
G37*
G54D19*X48500Y181500D03*
X71000Y139500D03*
G54D18*G36*
X29500Y143000D02*Y136000D01*
X36500D01*
Y143000D01*
X29500D01*
G37*
G54D19*X19000Y139500D03*
X135500Y157500D03*
X126500Y146500D03*
G54D18*G36*
X141000Y187500D02*Y180500D01*
X148000D01*
Y187500D01*
X141000D01*
G37*
G54D19*X158500Y184000D03*
X93000Y199000D03*
X83000D03*
G54D20*X66500Y171500D03*
X135500Y48000D03*
X144000D03*
X160000Y56500D03*
G54D21*G54D22*M02*
