G04 start of page 7 for group -4062 idx -4062 *
G04 Title: (unknown), soldermask *
G04 Creator: pcb 20110918 *
G04 CreationDate: Tue Jul 31 21:11:32 2012 UTC *
G04 For: frankenteddy *
G04 Format: Gerber/RS-274X *
G04 PCB-Dimensions: 212500 212500 *
G04 PCB-Coordinate-Origin: lower left *
%MOIN*%
%FSLAX25Y25*%
%LNBOTTOMMASK*%
%ADD29C,0.0760*%
%ADD28C,0.0001*%
G54D28*G36*
X146700Y35800D02*Y28200D01*
X154300D01*
Y35800D01*
X146700D01*
G37*
G54D29*X164500Y32000D03*
G54D28*G36*
X192700Y97800D02*Y90200D01*
X200300D01*
Y97800D01*
X192700D01*
G37*
G54D29*X182500Y94000D03*
G54D28*G36*
X182700Y65300D02*Y57700D01*
X190300D01*
Y65300D01*
X182700D01*
G37*
G54D29*X172500Y61500D03*
G54D28*G36*
X36988Y67612D02*Y60012D01*
X44588D01*
Y67612D01*
X36988D01*
G37*
G54D29*X26788Y63812D03*
G54D28*G36*
X12200Y95300D02*Y87700D01*
X19800D01*
Y95300D01*
X12200D01*
G37*
G54D29*X30000Y91500D03*
G54D28*G36*
X54200Y40300D02*Y32700D01*
X61800D01*
Y40300D01*
X54200D01*
G37*
G36*
X92200Y21300D02*Y13700D01*
X99800D01*
Y21300D01*
X92200D01*
G37*
G54D29*X82000Y17500D03*
G54D28*G36*
X128700Y21300D02*Y13700D01*
X136300D01*
Y21300D01*
X128700D01*
G37*
G54D29*X118500Y17500D03*
X44000Y36500D03*
X135500Y197500D03*
X126500Y186500D03*
X79000Y177500D03*
X113000Y199000D03*
X103000D03*
X79000Y137500D03*
G54D28*G36*
X175200Y140300D02*Y132700D01*
X182800D01*
Y140300D01*
X175200D01*
G37*
G54D29*X193000Y136500D03*
X71000Y179500D03*
G54D28*G36*
X58700Y185300D02*Y177700D01*
X66300D01*
Y185300D01*
X58700D01*
G37*
G54D29*X48500Y181500D03*
X71000Y139500D03*
G54D28*G36*
X29200Y143300D02*Y135700D01*
X36800D01*
Y143300D01*
X29200D01*
G37*
G54D29*X19000Y139500D03*
X135500Y157500D03*
X126500Y146500D03*
G54D28*G36*
X140700Y187800D02*Y180200D01*
X148300D01*
Y187800D01*
X140700D01*
G37*
G54D29*X158500Y184000D03*
X93000Y199000D03*
X83000D03*
M02*
