G04 start of page 10 for group -3984 idx -3984 *
G04 Title: (unknown), fab *
G04 Creator: pcb 20110918 *
G04 CreationDate: Tue Jul 31 21:11:33 2012 UTC *
G04 For: frankenteddy *
G04 Format: Gerber/RS-274X *
G04 PCB-Dimensions: 212500 212500 *
G04 PCB-Coordinate-Origin: lower left *
%MOIN*%
%FSLAX25Y25*%
%LNFAB*%
%ADD36C,0.0100*%
%ADD35C,0.0075*%
%ADD34C,0.0060*%
%ADD33C,0.0080*%
G54D33*X150500Y33600D02*Y30400D01*
X148900Y32000D02*X152100D01*
X164500Y33600D02*Y30400D01*
X162900Y32000D02*X166100D01*
X135500Y199100D02*Y195900D01*
X133900Y197500D02*X137100D01*
X135500Y159100D02*Y155900D01*
X133900Y157500D02*X137100D01*
X126500Y188100D02*Y184900D01*
X124900Y186500D02*X128100D01*
X126500Y148100D02*Y144900D01*
X124900Y146500D02*X128100D01*
X79000Y179100D02*Y175900D01*
X77400Y177500D02*X80600D01*
X79000Y139100D02*Y135900D01*
X77400Y137500D02*X80600D01*
X71000Y181100D02*Y177900D01*
X69400Y179500D02*X72600D01*
X71000Y141100D02*Y137900D01*
X69400Y139500D02*X72600D01*
X40788Y65412D02*Y62212D01*
X39188Y63812D02*X42388D01*
X26788Y65412D02*Y62212D01*
X25188Y63812D02*X28388D01*
X33000Y141100D02*Y137900D01*
X31400Y139500D02*X34600D01*
X19000Y141100D02*Y137900D01*
X17400Y139500D02*X20600D01*
X62500Y183100D02*Y179900D01*
X60900Y181500D02*X64100D01*
X48500Y183100D02*Y179900D01*
X46900Y181500D02*X50100D01*
X196500Y95600D02*Y92400D01*
X194900Y94000D02*X198100D01*
X182500Y95600D02*Y92400D01*
X180900Y94000D02*X184100D01*
X179000Y138100D02*Y134900D01*
X177400Y136500D02*X180600D01*
X193000Y138100D02*Y134900D01*
X191400Y136500D02*X194600D01*
X144500Y185600D02*Y182400D01*
X142900Y184000D02*X146100D01*
X158500Y185600D02*Y182400D01*
X156900Y184000D02*X160100D01*
X16000Y93100D02*Y89900D01*
X14400Y91500D02*X17600D01*
X30000Y93100D02*Y89900D01*
X28400Y91500D02*X31600D01*
X58000Y38100D02*Y34900D01*
X56400Y36500D02*X59600D01*
X44000Y38100D02*Y34900D01*
X42400Y36500D02*X45600D01*
X96000Y19100D02*Y15900D01*
X94400Y17500D02*X97600D01*
X82000Y19100D02*Y15900D01*
X80400Y17500D02*X83600D01*
X132500Y19100D02*Y15900D01*
X130900Y17500D02*X134100D01*
X118500Y19100D02*Y15900D01*
X116900Y17500D02*X120100D01*
X186500Y63100D02*Y59900D01*
X184900Y61500D02*X188100D01*
X172500Y63100D02*Y59900D01*
X170900Y61500D02*X174100D01*
X93000Y200600D02*Y197400D01*
X91400Y199000D02*X94600D01*
X83000Y200600D02*Y197400D01*
X81400Y199000D02*X84600D01*
X113000Y200600D02*Y197400D01*
X111400Y199000D02*X114600D01*
X103000Y200600D02*Y197400D01*
X101400Y199000D02*X104600D01*
X15000Y255350D02*Y252150D01*
X13400Y253750D02*X16600D01*
G54D34*X135000Y256000D02*X136500Y253000D01*
X138000Y256000D01*
X136500Y253000D02*Y250000D01*
X139800Y253300D02*X142050D01*
X139800Y250000D02*X142800D01*
X139800Y256000D02*Y250000D01*
Y256000D02*X142800D01*
X147600D02*X148350Y255250D01*
X145350Y256000D02*X147600D01*
X144600Y255250D02*X145350Y256000D01*
X144600Y255250D02*Y253750D01*
X145350Y253000D01*
X147600D01*
X148350Y252250D01*
Y250750D01*
X147600Y250000D02*X148350Y250750D01*
X145350Y250000D02*X147600D01*
X144600Y250750D02*X145350Y250000D01*
X98000Y255250D02*X98750Y256000D01*
X100250D01*
X101000Y255250D01*
X100250Y250000D02*X101000Y250750D01*
X98750Y250000D02*X100250D01*
X98000Y250750D02*X98750Y250000D01*
Y253300D02*X100250D01*
X101000Y255250D02*Y254050D01*
Y252550D02*Y250750D01*
Y252550D02*X100250Y253300D01*
X101000Y254050D02*X100250Y253300D01*
X105050Y256000D02*X105800Y255250D01*
X103550Y256000D02*X105050D01*
X102800Y255250D02*X103550Y256000D01*
X102800Y255250D02*Y250750D01*
X103550Y250000D01*
X105050Y253300D02*X105800Y252550D01*
X102800Y253300D02*X105050D01*
X103550Y250000D02*X105050D01*
X105800Y250750D01*
Y252550D02*Y250750D01*
X45000D02*X45750Y250000D01*
X45000Y255250D02*Y250750D01*
Y255250D02*X45750Y256000D01*
X47250D01*
X48000Y255250D01*
Y250750D01*
X47250Y250000D02*X48000Y250750D01*
X45750Y250000D02*X47250D01*
X45000Y251500D02*X48000Y254500D01*
X49800Y250000D02*X50550D01*
X52350Y250750D02*X53100Y250000D01*
X52350Y255250D02*Y250750D01*
Y255250D02*X53100Y256000D01*
X54600D01*
X55350Y255250D01*
Y250750D01*
X54600Y250000D02*X55350Y250750D01*
X53100Y250000D02*X54600D01*
X52350Y251500D02*X55350Y254500D01*
X57150Y255250D02*X57900Y256000D01*
X59400D01*
X60150Y255250D01*
X59400Y250000D02*X60150Y250750D01*
X57900Y250000D02*X59400D01*
X57150Y250750D02*X57900Y250000D01*
Y253300D02*X59400D01*
X60150Y255250D02*Y254050D01*
Y252550D02*Y250750D01*
Y252550D02*X59400Y253300D01*
X60150Y254050D02*X59400Y253300D01*
X61950Y256000D02*X64950D01*
X61950D02*Y253000D01*
X62700Y253750D01*
X64200D01*
X64950Y253000D01*
Y250750D01*
X64200Y250000D02*X64950Y250750D01*
X62700Y250000D02*X64200D01*
X61950Y250750D02*X62700Y250000D01*
X66500Y171500D02*Y169900D01*
Y171500D02*X67887Y172300D01*
X66500Y171500D02*X65113Y172300D01*
X135500Y48000D02*Y46400D01*
Y48000D02*X136887Y48800D01*
X135500Y48000D02*X134113Y48800D01*
X144000Y48000D02*Y46400D01*
Y48000D02*X145387Y48800D01*
X144000Y48000D02*X142613Y48800D01*
X160000Y56500D02*Y54900D01*
Y56500D02*X161387Y57300D01*
X160000Y56500D02*X158613Y57300D01*
X15000Y268750D02*Y267150D01*
Y268750D02*X16387Y269550D01*
X15000Y268750D02*X13613Y269550D01*
X135000Y271000D02*X136500Y268000D01*
X138000Y271000D01*
X136500Y268000D02*Y265000D01*
X139800Y268300D02*X142050D01*
X139800Y265000D02*X142800D01*
X139800Y271000D02*Y265000D01*
Y271000D02*X142800D01*
X147600D02*X148350Y270250D01*
X145350Y271000D02*X147600D01*
X144600Y270250D02*X145350Y271000D01*
X144600Y270250D02*Y268750D01*
X145350Y268000D01*
X147600D01*
X148350Y267250D01*
Y265750D01*
X147600Y265000D02*X148350Y265750D01*
X145350Y265000D02*X147600D01*
X144600Y265750D02*X145350Y265000D01*
X98000Y267250D02*X101000Y271000D01*
X98000Y267250D02*X101750D01*
X101000Y271000D02*Y265000D01*
X45000Y265750D02*X45750Y265000D01*
X45000Y270250D02*Y265750D01*
Y270250D02*X45750Y271000D01*
X47250D01*
X48000Y270250D01*
Y265750D01*
X47250Y265000D02*X48000Y265750D01*
X45750Y265000D02*X47250D01*
X45000Y266500D02*X48000Y269500D01*
X49800Y265000D02*X50550D01*
X52350Y265750D02*X53100Y265000D01*
X52350Y270250D02*Y265750D01*
Y270250D02*X53100Y271000D01*
X54600D01*
X55350Y270250D01*
Y265750D01*
X54600Y265000D02*X55350Y265750D01*
X53100Y265000D02*X54600D01*
X52350Y266500D02*X55350Y269500D01*
X57150Y270250D02*X57900Y271000D01*
X60150D01*
X60900Y270250D01*
Y268750D01*
X57150Y265000D02*X60900Y268750D01*
X57150Y265000D02*X60900D01*
X62700Y265750D02*X63450Y265000D01*
X62700Y270250D02*Y265750D01*
Y270250D02*X63450Y271000D01*
X64950D01*
X65700Y270250D01*
Y265750D01*
X64950Y265000D02*X65700Y265750D01*
X63450Y265000D02*X64950D01*
X62700Y266500D02*X65700Y269500D01*
X3000Y286000D02*X3750Y285250D01*
X750Y286000D02*X3000D01*
X0Y285250D02*X750Y286000D01*
X0Y285250D02*Y283750D01*
X750Y283000D01*
X3000D01*
X3750Y282250D01*
Y280750D01*
X3000Y280000D02*X3750Y280750D01*
X750Y280000D02*X3000D01*
X0Y280750D02*X750Y280000D01*
X5550Y283000D02*Y280750D01*
X6300Y280000D01*
X8550Y283000D02*Y278500D01*
X7800Y277750D02*X8550Y278500D01*
X6300Y277750D02*X7800D01*
X5550Y278500D02*X6300Y277750D01*
Y280000D02*X7800D01*
X8550Y280750D01*
X11100Y282250D02*Y280000D01*
Y282250D02*X11850Y283000D01*
X12600D01*
X13350Y282250D01*
Y280000D01*
Y282250D02*X14100Y283000D01*
X14850D01*
X15600Y282250D01*
Y280000D01*
X10350Y283000D02*X11100Y282250D01*
X17400Y286000D02*Y280000D01*
Y280750D02*X18150Y280000D01*
X19650D01*
X20400Y280750D01*
Y282250D02*Y280750D01*
X19650Y283000D02*X20400Y282250D01*
X18150Y283000D02*X19650D01*
X17400Y282250D02*X18150Y283000D01*
X22200Y282250D02*Y280750D01*
Y282250D02*X22950Y283000D01*
X24450D01*
X25200Y282250D01*
Y280750D01*
X24450Y280000D02*X25200Y280750D01*
X22950Y280000D02*X24450D01*
X22200Y280750D02*X22950Y280000D01*
X27000Y286000D02*Y280750D01*
X27750Y280000D01*
X0Y276750D02*X29250D01*
X41750Y286000D02*Y280000D01*
X43700Y286000D02*X44750Y284950D01*
Y281050D01*
X43700Y280000D02*X44750Y281050D01*
X41000Y280000D02*X43700D01*
X41000Y286000D02*X43700D01*
G54D35*X46550Y284500D02*Y284350D01*
G54D34*Y282250D02*Y280000D01*
X50300Y283000D02*X51050Y282250D01*
X48800Y283000D02*X50300D01*
X48050Y282250D02*X48800Y283000D01*
X48050Y282250D02*Y280750D01*
X48800Y280000D01*
X51050Y283000D02*Y280750D01*
X51800Y280000D01*
X48800D02*X50300D01*
X51050Y280750D01*
X54350Y282250D02*Y280000D01*
Y282250D02*X55100Y283000D01*
X55850D01*
X56600Y282250D01*
Y280000D01*
Y282250D02*X57350Y283000D01*
X58100D01*
X58850Y282250D01*
Y280000D01*
X53600Y283000D02*X54350Y282250D01*
X60650Y280000D02*X61400D01*
X65900Y280750D02*X66650Y280000D01*
X65900Y285250D02*X66650Y286000D01*
X65900Y285250D02*Y280750D01*
X68450Y286000D02*X69950D01*
X69200D02*Y280000D01*
X68450D02*X69950D01*
X72500Y282250D02*Y280000D01*
Y282250D02*X73250Y283000D01*
X74000D01*
X74750Y282250D01*
Y280000D01*
X71750Y283000D02*X72500Y282250D01*
X77300Y283000D02*X79550D01*
X76550Y282250D02*X77300Y283000D01*
X76550Y282250D02*Y280750D01*
X77300Y280000D01*
X79550D01*
X81350Y286000D02*Y280000D01*
Y282250D02*X82100Y283000D01*
X83600D01*
X84350Y282250D01*
Y280000D01*
X86150Y286000D02*X86900Y285250D01*
Y280750D01*
X86150Y280000D02*X86900Y280750D01*
X41000Y276750D02*X88700D01*
X96050Y280000D02*X98000D01*
X95000Y281050D02*X96050Y280000D01*
X95000Y284950D02*Y281050D01*
Y284950D02*X96050Y286000D01*
X98000D01*
X99800Y282250D02*Y280750D01*
Y282250D02*X100550Y283000D01*
X102050D01*
X102800Y282250D01*
Y280750D01*
X102050Y280000D02*X102800Y280750D01*
X100550Y280000D02*X102050D01*
X99800Y280750D02*X100550Y280000D01*
X104600Y283000D02*Y280750D01*
X105350Y280000D01*
X106850D01*
X107600Y280750D01*
Y283000D02*Y280750D01*
X110150Y282250D02*Y280000D01*
Y282250D02*X110900Y283000D01*
X111650D01*
X112400Y282250D01*
Y280000D01*
X109400Y283000D02*X110150Y282250D01*
X114950Y286000D02*Y280750D01*
X115700Y280000D01*
X114200Y283750D02*X115700D01*
X95000Y276750D02*X117200D01*
X130750Y286000D02*Y280000D01*
X130000Y286000D02*X133000D01*
X133750Y285250D01*
Y283750D01*
X133000Y283000D02*X133750Y283750D01*
X130750Y283000D02*X133000D01*
X135550Y286000D02*Y280750D01*
X136300Y280000D01*
X140050Y283000D02*X140800Y282250D01*
X138550Y283000D02*X140050D01*
X137800Y282250D02*X138550Y283000D01*
X137800Y282250D02*Y280750D01*
X138550Y280000D01*
X140800Y283000D02*Y280750D01*
X141550Y280000D01*
X138550D02*X140050D01*
X140800Y280750D01*
X144100Y286000D02*Y280750D01*
X144850Y280000D01*
X143350Y283750D02*X144850D01*
X147100Y280000D02*X149350D01*
X146350Y280750D02*X147100Y280000D01*
X146350Y282250D02*Y280750D01*
Y282250D02*X147100Y283000D01*
X148600D01*
X149350Y282250D01*
X146350Y281500D02*X149350D01*
Y282250D02*Y281500D01*
X154150Y286000D02*Y280000D01*
X153400D02*X154150Y280750D01*
X151900Y280000D02*X153400D01*
X151150Y280750D02*X151900Y280000D01*
X151150Y282250D02*Y280750D01*
Y282250D02*X151900Y283000D01*
X153400D01*
X154150Y282250D01*
X157450Y283000D02*Y282250D01*
Y280750D02*Y280000D01*
X155950Y285250D02*Y284500D01*
Y285250D02*X156700Y286000D01*
X158200D01*
X158950Y285250D01*
Y284500D01*
X157450Y283000D02*X158950Y284500D01*
X130000Y276750D02*X160750D01*
X0Y301000D02*X3000D01*
X1500D02*Y295000D01*
X4800Y301000D02*Y295000D01*
Y297250D02*X5550Y298000D01*
X7050D01*
X7800Y297250D01*
Y295000D01*
X10350D02*X12600D01*
X9600Y295750D02*X10350Y295000D01*
X9600Y297250D02*Y295750D01*
Y297250D02*X10350Y298000D01*
X11850D01*
X12600Y297250D01*
X9600Y296500D02*X12600D01*
Y297250D02*Y296500D01*
X15150Y297250D02*Y295000D01*
Y297250D02*X15900Y298000D01*
X17400D01*
X14400D02*X15150Y297250D01*
X19950Y295000D02*X22200D01*
X19200Y295750D02*X19950Y295000D01*
X19200Y297250D02*Y295750D01*
Y297250D02*X19950Y298000D01*
X21450D01*
X22200Y297250D01*
X19200Y296500D02*X22200D01*
Y297250D02*Y296500D01*
X28950Y298000D02*X29700Y297250D01*
X27450Y298000D02*X28950D01*
X26700Y297250D02*X27450Y298000D01*
X26700Y297250D02*Y295750D01*
X27450Y295000D01*
X29700Y298000D02*Y295750D01*
X30450Y295000D01*
X27450D02*X28950D01*
X29700Y295750D01*
X33000Y297250D02*Y295000D01*
Y297250D02*X33750Y298000D01*
X35250D01*
X32250D02*X33000Y297250D01*
X37800Y295000D02*X40050D01*
X37050Y295750D02*X37800Y295000D01*
X37050Y297250D02*Y295750D01*
Y297250D02*X37800Y298000D01*
X39300D01*
X40050Y297250D01*
X37050Y296500D02*X40050D01*
Y297250D02*Y296500D01*
X44550Y300250D02*X45300Y301000D01*
X47550D01*
X48300Y300250D01*
Y298750D01*
X44550Y295000D02*X48300Y298750D01*
X44550Y295000D02*X48300D01*
X55800Y301000D02*Y295000D01*
X55050D02*X55800Y295750D01*
X53550Y295000D02*X55050D01*
X52800Y295750D02*X53550Y295000D01*
X52800Y297250D02*Y295750D01*
Y297250D02*X53550Y298000D01*
X55050D01*
X55800Y297250D01*
G54D35*X57600Y299500D02*Y299350D01*
G54D34*Y297250D02*Y295000D01*
X59850Y300250D02*Y295000D01*
Y300250D02*X60600Y301000D01*
X61350D01*
X59100Y298000D02*X60600D01*
X63600Y300250D02*Y295000D01*
Y300250D02*X64350Y301000D01*
X65100D01*
X62850Y298000D02*X64350D01*
X67350Y295000D02*X69600D01*
X66600Y295750D02*X67350Y295000D01*
X66600Y297250D02*Y295750D01*
Y297250D02*X67350Y298000D01*
X68850D01*
X69600Y297250D01*
X66600Y296500D02*X69600D01*
Y297250D02*Y296500D01*
X72150Y297250D02*Y295000D01*
Y297250D02*X72900Y298000D01*
X74400D01*
X71400D02*X72150Y297250D01*
X76950Y295000D02*X79200D01*
X76200Y295750D02*X76950Y295000D01*
X76200Y297250D02*Y295750D01*
Y297250D02*X76950Y298000D01*
X78450D01*
X79200Y297250D01*
X76200Y296500D02*X79200D01*
Y297250D02*Y296500D01*
X81750Y297250D02*Y295000D01*
Y297250D02*X82500Y298000D01*
X83250D01*
X84000Y297250D01*
Y295000D01*
X81000Y298000D02*X81750Y297250D01*
X86550Y301000D02*Y295750D01*
X87300Y295000D01*
X85800Y298750D02*X87300D01*
X94500Y301000D02*Y295000D01*
X93750D02*X94500Y295750D01*
X92250Y295000D02*X93750D01*
X91500Y295750D02*X92250Y295000D01*
X91500Y297250D02*Y295750D01*
Y297250D02*X92250Y298000D01*
X93750D01*
X94500Y297250D01*
X97050D02*Y295000D01*
Y297250D02*X97800Y298000D01*
X99300D01*
X96300D02*X97050Y297250D01*
G54D35*X101100Y299500D02*Y299350D01*
G54D34*Y297250D02*Y295000D01*
X102600Y301000D02*Y295750D01*
X103350Y295000D01*
X104850Y301000D02*Y295750D01*
X105600Y295000D01*
X110550D02*X112800D01*
X113550Y295750D01*
X112800Y296500D02*X113550Y295750D01*
X110550Y296500D02*X112800D01*
X109800Y297250D02*X110550Y296500D01*
X109800Y297250D02*X110550Y298000D01*
X112800D01*
X113550Y297250D01*
X109800Y295750D02*X110550Y295000D01*
G54D35*X115350Y299500D02*Y299350D01*
G54D34*Y297250D02*Y295000D01*
X116850Y298000D02*X119850D01*
X116850Y295000D02*X119850Y298000D01*
X116850Y295000D02*X119850D01*
X122400D02*X124650D01*
X121650Y295750D02*X122400Y295000D01*
X121650Y297250D02*Y295750D01*
Y297250D02*X122400Y298000D01*
X123900D01*
X124650Y297250D01*
X121650Y296500D02*X124650D01*
Y297250D02*Y296500D01*
X127200Y295000D02*X129450D01*
X130200Y295750D01*
X129450Y296500D02*X130200Y295750D01*
X127200Y296500D02*X129450D01*
X126450Y297250D02*X127200Y296500D01*
X126450Y297250D02*X127200Y298000D01*
X129450D01*
X130200Y297250D01*
X126450Y295750D02*X127200Y295000D01*
X134700Y298000D02*Y295750D01*
X135450Y295000D01*
X136950D01*
X137700Y295750D01*
Y298000D02*Y295750D01*
X140250Y295000D02*X142500D01*
X143250Y295750D01*
X142500Y296500D02*X143250Y295750D01*
X140250Y296500D02*X142500D01*
X139500Y297250D02*X140250Y296500D01*
X139500Y297250D02*X140250Y298000D01*
X142500D01*
X143250Y297250D01*
X139500Y295750D02*X140250Y295000D01*
X145800D02*X148050D01*
X145050Y295750D02*X145800Y295000D01*
X145050Y297250D02*Y295750D01*
Y297250D02*X145800Y298000D01*
X147300D01*
X148050Y297250D01*
X145050Y296500D02*X148050D01*
Y297250D02*Y296500D01*
X152850Y301000D02*Y295000D01*
X152100D02*X152850Y295750D01*
X150600Y295000D02*X152100D01*
X149850Y295750D02*X150600Y295000D01*
X149850Y297250D02*Y295750D01*
Y297250D02*X150600Y298000D01*
X152100D01*
X152850Y297250D01*
G54D35*X157350Y299500D02*Y299350D01*
G54D34*Y297250D02*Y295000D01*
X159600Y297250D02*Y295000D01*
Y297250D02*X160350Y298000D01*
X161100D01*
X161850Y297250D01*
Y295000D01*
X158850Y298000D02*X159600Y297250D01*
X167100Y301000D02*Y295750D01*
X167850Y295000D01*
X166350Y298750D02*X167850D01*
X169350Y301000D02*Y295000D01*
Y297250D02*X170100Y298000D01*
X171600D01*
X172350Y297250D01*
Y295000D01*
G54D35*X174150Y299500D02*Y299350D01*
G54D34*Y297250D02*Y295000D01*
X176400D02*X178650D01*
X179400Y295750D01*
X178650Y296500D02*X179400Y295750D01*
X176400Y296500D02*X178650D01*
X175650Y297250D02*X176400Y296500D01*
X175650Y297250D02*X176400Y298000D01*
X178650D01*
X179400Y297250D01*
X175650Y295750D02*X176400Y295000D01*
X183900Y301000D02*Y295750D01*
X184650Y295000D01*
X188400Y298000D02*X189150Y297250D01*
X186900Y298000D02*X188400D01*
X186150Y297250D02*X186900Y298000D01*
X186150Y297250D02*Y295750D01*
X186900Y295000D01*
X189150Y298000D02*Y295750D01*
X189900Y295000D01*
X186900D02*X188400D01*
X189150Y295750D01*
X191700Y298000D02*Y295750D01*
X192450Y295000D01*
X194700Y298000D02*Y293500D01*
X193950Y292750D02*X194700Y293500D01*
X192450Y292750D02*X193950D01*
X191700Y293500D02*X192450Y292750D01*
Y295000D02*X193950D01*
X194700Y295750D01*
X196500Y297250D02*Y295750D01*
Y297250D02*X197250Y298000D01*
X198750D01*
X199500Y297250D01*
Y295750D01*
X198750Y295000D02*X199500Y295750D01*
X197250Y295000D02*X198750D01*
X196500Y295750D02*X197250Y295000D01*
X201300Y298000D02*Y295750D01*
X202050Y295000D01*
X203550D01*
X204300Y295750D01*
Y298000D02*Y295750D01*
X206850Y301000D02*Y295750D01*
X207600Y295000D01*
X206100Y298750D02*X207600D01*
X209100Y293500D02*X210600Y295000D01*
X215100Y297250D02*X218100Y301000D01*
X215100Y297250D02*X218850D01*
X218100Y301000D02*Y295000D01*
X220650Y295750D02*X221400Y295000D01*
X220650Y300250D02*Y295750D01*
Y300250D02*X221400Y301000D01*
X222900D01*
X223650Y300250D01*
Y295750D01*
X222900Y295000D02*X223650Y295750D01*
X221400Y295000D02*X222900D01*
X220650Y296500D02*X223650Y299500D01*
X228150Y301000D02*Y295000D01*
Y297250D02*X228900Y298000D01*
X230400D01*
X231150Y297250D01*
Y295000D01*
X232950Y297250D02*Y295750D01*
Y297250D02*X233700Y298000D01*
X235200D01*
X235950Y297250D01*
Y295750D01*
X235200Y295000D02*X235950Y295750D01*
X233700Y295000D02*X235200D01*
X232950Y295750D02*X233700Y295000D01*
X237750Y301000D02*Y295750D01*
X238500Y295000D01*
X240750D02*X243000D01*
X240000Y295750D02*X240750Y295000D01*
X240000Y297250D02*Y295750D01*
Y297250D02*X240750Y298000D01*
X242250D01*
X243000Y297250D01*
X240000Y296500D02*X243000D01*
Y297250D02*Y296500D01*
X245550Y295000D02*X247800D01*
X248550Y295750D01*
X247800Y296500D02*X248550Y295750D01*
X245550Y296500D02*X247800D01*
X244800Y297250D02*X245550Y296500D01*
X244800Y297250D02*X245550Y298000D01*
X247800D01*
X248550Y297250D01*
X244800Y295750D02*X245550Y295000D01*
X253800Y301000D02*Y295750D01*
X254550Y295000D01*
X253050Y298750D02*X254550D01*
X256050Y297250D02*Y295750D01*
Y297250D02*X256800Y298000D01*
X258300D01*
X259050Y297250D01*
Y295750D01*
X258300Y295000D02*X259050Y295750D01*
X256800Y295000D02*X258300D01*
X256050Y295750D02*X256800Y295000D01*
X261600Y301000D02*Y295750D01*
X262350Y295000D01*
X260850Y298750D02*X262350D01*
X266100Y298000D02*X266850Y297250D01*
X264600Y298000D02*X266100D01*
X263850Y297250D02*X264600Y298000D01*
X263850Y297250D02*Y295750D01*
X264600Y295000D01*
X266850Y298000D02*Y295750D01*
X267600Y295000D01*
X264600D02*X266100D01*
X266850Y295750D01*
X269400Y301000D02*Y295750D01*
X270150Y295000D01*
G54D36*X105500Y2000D02*X106500D01*
G75*G03X211000Y106500I0J104500D01*G01*
Y106500D02*G75*G03X106500Y211000I-104500J0D01*G01*
G75*G03X1500Y106000I0J-105000D01*G01*
G75*G03X105500Y2000I104000J0D01*G01*
G54D34*X19925Y-9500D02*X22925D01*
X23675Y-8750D01*
Y-6950D02*Y-8750D01*
X22925Y-6200D02*X23675Y-6950D01*
X20675Y-6200D02*X22925D01*
X20675Y-3500D02*Y-9500D01*
X19925Y-3500D02*X22925D01*
X23675Y-4250D01*
Y-5450D01*
X22925Y-6200D02*X23675Y-5450D01*
X25475Y-7250D02*Y-8750D01*
Y-7250D02*X26225Y-6500D01*
X27725D01*
X28475Y-7250D01*
Y-8750D01*
X27725Y-9500D02*X28475Y-8750D01*
X26225Y-9500D02*X27725D01*
X25475Y-8750D02*X26225Y-9500D01*
X32525Y-6500D02*X33275Y-7250D01*
X31025Y-6500D02*X32525D01*
X30275Y-7250D02*X31025Y-6500D01*
X30275Y-7250D02*Y-8750D01*
X31025Y-9500D01*
X33275Y-6500D02*Y-8750D01*
X34025Y-9500D01*
X31025D02*X32525D01*
X33275Y-8750D01*
X36575Y-7250D02*Y-9500D01*
Y-7250D02*X37325Y-6500D01*
X38825D01*
X35825D02*X36575Y-7250D01*
X43625Y-3500D02*Y-9500D01*
X42875D02*X43625Y-8750D01*
X41375Y-9500D02*X42875D01*
X40625Y-8750D02*X41375Y-9500D01*
X40625Y-7250D02*Y-8750D01*
Y-7250D02*X41375Y-6500D01*
X42875D01*
X43625Y-7250D01*
X48125D02*Y-8750D01*
Y-7250D02*X48875Y-6500D01*
X50375D01*
X51125Y-7250D01*
Y-8750D01*
X50375Y-9500D02*X51125Y-8750D01*
X48875Y-9500D02*X50375D01*
X48125Y-8750D02*X48875Y-9500D01*
X52925Y-6500D02*Y-8750D01*
X53675Y-9500D01*
X55175D01*
X55925Y-8750D01*
Y-6500D02*Y-8750D01*
X58475Y-3500D02*Y-8750D01*
X59225Y-9500D01*
X57725Y-5750D02*X59225D01*
X60725Y-3500D02*Y-8750D01*
X61475Y-9500D01*
G54D35*X62975Y-5000D02*Y-5150D01*
G54D34*Y-7250D02*Y-9500D01*
X65225Y-7250D02*Y-9500D01*
Y-7250D02*X65975Y-6500D01*
X66725D01*
X67475Y-7250D01*
Y-9500D01*
X64475Y-6500D02*X65225Y-7250D01*
X70025Y-9500D02*X72275D01*
X69275Y-8750D02*X70025Y-9500D01*
X69275Y-7250D02*Y-8750D01*
Y-7250D02*X70025Y-6500D01*
X71525D01*
X72275Y-7250D01*
X69275Y-8000D02*X72275D01*
Y-7250D02*Y-8000D01*
G54D35*X76775Y-5000D02*Y-5150D01*
G54D34*Y-7250D02*Y-9500D01*
X79025D02*X81275D01*
X82025Y-8750D01*
X81275Y-8000D02*X82025Y-8750D01*
X79025Y-8000D02*X81275D01*
X78275Y-7250D02*X79025Y-8000D01*
X78275Y-7250D02*X79025Y-6500D01*
X81275D01*
X82025Y-7250D01*
X78275Y-8750D02*X79025Y-9500D01*
X87275Y-3500D02*Y-8750D01*
X88025Y-9500D01*
X86525Y-5750D02*X88025D01*
X89525Y-3500D02*Y-9500D01*
Y-7250D02*X90275Y-6500D01*
X91775D01*
X92525Y-7250D01*
Y-9500D01*
X95075D02*X97325D01*
X94325Y-8750D02*X95075Y-9500D01*
X94325Y-7250D02*Y-8750D01*
Y-7250D02*X95075Y-6500D01*
X96575D01*
X97325Y-7250D01*
X94325Y-8000D02*X97325D01*
Y-7250D02*Y-8000D01*
X102575Y-6500D02*X104825D01*
X101825Y-7250D02*X102575Y-6500D01*
X101825Y-7250D02*Y-8750D01*
X102575Y-9500D01*
X104825D01*
X107375D02*X109625D01*
X106625Y-8750D02*X107375Y-9500D01*
X106625Y-7250D02*Y-8750D01*
Y-7250D02*X107375Y-6500D01*
X108875D01*
X109625Y-7250D01*
X106625Y-8000D02*X109625D01*
Y-7250D02*Y-8000D01*
X112175Y-7250D02*Y-9500D01*
Y-7250D02*X112925Y-6500D01*
X113675D01*
X114425Y-7250D01*
Y-9500D01*
X111425Y-6500D02*X112175Y-7250D01*
X116975Y-3500D02*Y-8750D01*
X117725Y-9500D01*
X116225Y-5750D02*X117725D01*
X119975Y-9500D02*X122225D01*
X119225Y-8750D02*X119975Y-9500D01*
X119225Y-7250D02*Y-8750D01*
Y-7250D02*X119975Y-6500D01*
X121475D01*
X122225Y-7250D01*
X119225Y-8000D02*X122225D01*
Y-7250D02*Y-8000D01*
X124775Y-7250D02*Y-9500D01*
Y-7250D02*X125525Y-6500D01*
X127025D01*
X124025D02*X124775Y-7250D01*
X128825Y-3500D02*Y-8750D01*
X129575Y-9500D01*
G54D35*X131075Y-5000D02*Y-5150D01*
G54D34*Y-7250D02*Y-9500D01*
X133325Y-7250D02*Y-9500D01*
Y-7250D02*X134075Y-6500D01*
X134825D01*
X135575Y-7250D01*
Y-9500D01*
X132575Y-6500D02*X133325Y-7250D01*
X138125Y-9500D02*X140375D01*
X137375Y-8750D02*X138125Y-9500D01*
X137375Y-7250D02*Y-8750D01*
Y-7250D02*X138125Y-6500D01*
X139625D01*
X140375Y-7250D01*
X137375Y-8000D02*X140375D01*
Y-7250D02*Y-8000D01*
X144875Y-7250D02*Y-8750D01*
Y-7250D02*X145625Y-6500D01*
X147125D01*
X147875Y-7250D01*
Y-8750D01*
X147125Y-9500D02*X147875Y-8750D01*
X145625Y-9500D02*X147125D01*
X144875Y-8750D02*X145625Y-9500D01*
X150425Y-4250D02*Y-9500D01*
Y-4250D02*X151175Y-3500D01*
X151925D01*
X149675Y-6500D02*X151175D01*
X156875Y-3500D02*Y-8750D01*
X157625Y-9500D01*
X156125Y-5750D02*X157625D01*
X159125Y-3500D02*Y-9500D01*
Y-7250D02*X159875Y-6500D01*
X161375D01*
X162125Y-7250D01*
Y-9500D01*
G54D35*X163925Y-5000D02*Y-5150D01*
G54D34*Y-7250D02*Y-9500D01*
X166175D02*X168425D01*
X169175Y-8750D01*
X168425Y-8000D02*X169175Y-8750D01*
X166175Y-8000D02*X168425D01*
X165425Y-7250D02*X166175Y-8000D01*
X165425Y-7250D02*X166175Y-6500D01*
X168425D01*
X169175Y-7250D01*
X165425Y-8750D02*X166175Y-9500D01*
X174425Y-7250D02*Y-11750D01*
X173675Y-6500D02*X174425Y-7250D01*
X175175Y-6500D01*
X176675D01*
X177425Y-7250D01*
Y-8750D01*
X176675Y-9500D02*X177425Y-8750D01*
X175175Y-9500D02*X176675D01*
X174425Y-8750D02*X175175Y-9500D01*
X181475Y-6500D02*X182225Y-7250D01*
X179975Y-6500D02*X181475D01*
X179225Y-7250D02*X179975Y-6500D01*
X179225Y-7250D02*Y-8750D01*
X179975Y-9500D01*
X182225Y-6500D02*Y-8750D01*
X182975Y-9500D01*
X179975D02*X181475D01*
X182225Y-8750D01*
X185525Y-3500D02*Y-8750D01*
X186275Y-9500D01*
X184775Y-5750D02*X186275D01*
X187775Y-3500D02*Y-9500D01*
Y-7250D02*X188525Y-6500D01*
X190025D01*
X190775Y-7250D01*
Y-9500D01*
X200750Y241000D02*Y235000D01*
X202700Y241000D02*X203750Y239950D01*
Y236050D01*
X202700Y235000D02*X203750Y236050D01*
X200000Y235000D02*X202700D01*
X200000Y241000D02*X202700D01*
X207800Y238000D02*X208550Y237250D01*
X206300Y238000D02*X207800D01*
X205550Y237250D02*X206300Y238000D01*
X205550Y237250D02*Y235750D01*
X206300Y235000D01*
X208550Y238000D02*Y235750D01*
X209300Y235000D01*
X206300D02*X207800D01*
X208550Y235750D01*
X211850Y241000D02*Y235750D01*
X212600Y235000D01*
X211100Y238750D02*X212600D01*
X214850Y235000D02*X217100D01*
X214100Y235750D02*X214850Y235000D01*
X214100Y237250D02*Y235750D01*
Y237250D02*X214850Y238000D01*
X216350D01*
X217100Y237250D01*
X214100Y236500D02*X217100D01*
Y237250D02*Y236500D01*
X218900Y238750D02*X219650D01*
X218900Y237250D02*X219650D01*
X224150Y241000D02*X227150D01*
X225650D02*Y235000D01*
X228950Y238000D02*Y235750D01*
X229700Y235000D01*
X231200D01*
X231950Y235750D01*
Y238000D02*Y235750D01*
X234500Y235000D02*X236750D01*
X233750Y235750D02*X234500Y235000D01*
X233750Y237250D02*Y235750D01*
Y237250D02*X234500Y238000D01*
X236000D01*
X236750Y237250D01*
X233750Y236500D02*X236750D01*
Y237250D02*Y236500D01*
X242300Y241000D02*X243500D01*
Y235750D01*
X242750Y235000D02*X243500Y235750D01*
X242000Y235000D02*X242750D01*
X241250Y235750D02*X242000Y235000D01*
X241250Y236500D02*Y235750D01*
X245300Y238000D02*Y235750D01*
X246050Y235000D01*
X247550D01*
X248300Y235750D01*
Y238000D02*Y235750D01*
X250100Y241000D02*Y235750D01*
X250850Y235000D01*
X255050Y240250D02*X255800Y241000D01*
X257300D01*
X258050Y240250D01*
X257300Y235000D02*X258050Y235750D01*
X255800Y235000D02*X257300D01*
X255050Y235750D02*X255800Y235000D01*
Y238300D02*X257300D01*
X258050Y240250D02*Y239050D01*
Y237550D02*Y235750D01*
Y237550D02*X257300Y238300D01*
X258050Y239050D02*X257300Y238300D01*
X259850Y239800D02*X261050Y241000D01*
Y235000D01*
X259850D02*X262100D01*
X266600Y240250D02*X267350Y241000D01*
X269600D01*
X270350Y240250D01*
Y238750D01*
X266600Y235000D02*X270350Y238750D01*
X266600Y235000D02*X270350D01*
X272150Y239800D02*X273350Y241000D01*
Y235000D01*
X272150D02*X274400D01*
X276200Y238750D02*X276950D01*
X276200Y237250D02*X276950D01*
X278750Y239800D02*X279950Y241000D01*
Y235000D01*
X278750D02*X281000D01*
X282800Y239800D02*X284000Y241000D01*
Y235000D01*
X282800D02*X285050D01*
X286850Y238750D02*X287600D01*
X286850Y237250D02*X287600D01*
X289400Y240250D02*X290150Y241000D01*
X291650D01*
X292400Y240250D01*
X291650Y235000D02*X292400Y235750D01*
X290150Y235000D02*X291650D01*
X289400Y235750D02*X290150Y235000D01*
Y238300D02*X291650D01*
X292400Y240250D02*Y239050D01*
Y237550D02*Y235750D01*
Y237550D02*X291650Y238300D01*
X292400Y239050D02*X291650Y238300D01*
X294200Y240250D02*X294950Y241000D01*
X296450D01*
X297200Y240250D01*
X296450Y235000D02*X297200Y235750D01*
X294950Y235000D02*X296450D01*
X294200Y235750D02*X294950Y235000D01*
Y238300D02*X296450D01*
X297200Y240250D02*Y239050D01*
Y237550D02*Y235750D01*
Y237550D02*X296450Y238300D01*
X297200Y239050D02*X296450Y238300D01*
X301700Y240250D02*X302450Y241000D01*
X304700D01*
X305450Y240250D01*
Y238750D01*
X301700Y235000D02*X305450Y238750D01*
X301700Y235000D02*X305450D01*
X307250Y235750D02*X308000Y235000D01*
X307250Y240250D02*Y235750D01*
Y240250D02*X308000Y241000D01*
X309500D01*
X310250Y240250D01*
Y235750D01*
X309500Y235000D02*X310250Y235750D01*
X308000Y235000D02*X309500D01*
X307250Y236500D02*X310250Y239500D01*
X312050Y239800D02*X313250Y241000D01*
Y235000D01*
X312050D02*X314300D01*
X316100Y240250D02*X316850Y241000D01*
X319100D01*
X319850Y240250D01*
Y238750D01*
X316100Y235000D02*X319850Y238750D01*
X316100Y235000D02*X319850D01*
X324350Y241000D02*Y235750D01*
X325100Y235000D01*
X326600D01*
X327350Y235750D01*
Y241000D02*Y235750D01*
X329150Y241000D02*X332150D01*
X330650D02*Y235000D01*
X335000D02*X336950D01*
X333950Y236050D02*X335000Y235000D01*
X333950Y239950D02*Y236050D01*
Y239950D02*X335000Y241000D01*
X336950D01*
X200000Y254500D02*Y250000D01*
Y254500D02*X201050Y256000D01*
X202700D01*
X203750Y254500D01*
Y250000D01*
X200000Y253000D02*X203750D01*
X205550D02*Y250750D01*
X206300Y250000D01*
X207800D01*
X208550Y250750D01*
Y253000D02*Y250750D01*
X211100Y256000D02*Y250750D01*
X211850Y250000D01*
X210350Y253750D02*X211850D01*
X213350Y256000D02*Y250000D01*
Y252250D02*X214100Y253000D01*
X215600D01*
X216350Y252250D01*
Y250000D01*
X218150Y252250D02*Y250750D01*
Y252250D02*X218900Y253000D01*
X220400D01*
X221150Y252250D01*
Y250750D01*
X220400Y250000D02*X221150Y250750D01*
X218900Y250000D02*X220400D01*
X218150Y250750D02*X218900Y250000D01*
X223700Y252250D02*Y250000D01*
Y252250D02*X224450Y253000D01*
X225950D01*
X222950D02*X223700Y252250D01*
X227750Y253750D02*X228500D01*
X227750Y252250D02*X228500D01*
X233000Y253300D02*X235250D01*
X233000Y250000D02*X236000D01*
X233000Y256000D02*Y250000D01*
Y256000D02*X236000D01*
X238550Y252250D02*Y250000D01*
Y252250D02*X239300Y253000D01*
X240800D01*
X237800D02*X238550Y252250D01*
G54D35*X242600Y254500D02*Y254350D01*
G54D34*Y252250D02*Y250000D01*
X244850Y252250D02*Y250000D01*
Y252250D02*X245600Y253000D01*
X246350D01*
X247100Y252250D01*
Y250000D01*
X244100Y253000D02*X244850Y252250D01*
X251600Y256000D02*Y250000D01*
Y253000D02*X254600Y256000D01*
X251600Y253000D02*X254600Y250000D01*
X257150D02*X259400D01*
X256400Y250750D02*X257150Y250000D01*
X256400Y252250D02*Y250750D01*
Y252250D02*X257150Y253000D01*
X258650D01*
X259400Y252250D01*
X256400Y251500D02*X259400D01*
Y252250D02*Y251500D01*
X261950Y252250D02*Y250000D01*
Y252250D02*X262700Y253000D01*
X263450D01*
X264200Y252250D01*
Y250000D01*
X261200Y253000D02*X261950Y252250D01*
X266750D02*Y250000D01*
Y252250D02*X267500Y253000D01*
X268250D01*
X269000Y252250D01*
Y250000D01*
X266000Y253000D02*X266750Y252250D01*
X271550Y250000D02*X273800D01*
X270800Y250750D02*X271550Y250000D01*
X270800Y252250D02*Y250750D01*
Y252250D02*X271550Y253000D01*
X273050D01*
X273800Y252250D01*
X270800Y251500D02*X273800D01*
Y252250D02*Y251500D01*
X278600Y256000D02*Y250000D01*
X277850D02*X278600Y250750D01*
X276350Y250000D02*X277850D01*
X275600Y250750D02*X276350Y250000D01*
X275600Y252250D02*Y250750D01*
Y252250D02*X276350Y253000D01*
X277850D01*
X278600Y252250D01*
X280400Y253000D02*Y250750D01*
X281150Y250000D01*
X283400Y253000D02*Y248500D01*
X282650Y247750D02*X283400Y248500D01*
X281150Y247750D02*X282650D01*
X280400Y248500D02*X281150Y247750D01*
Y250000D02*X282650D01*
X283400Y250750D01*
X200000Y271000D02*X203000D01*
X201500D02*Y265000D01*
G54D35*X204800Y269500D02*Y269350D01*
G54D34*Y267250D02*Y265000D01*
X207050Y271000D02*Y265750D01*
X207800Y265000D01*
X206300Y268750D02*X207800D01*
X209300Y271000D02*Y265750D01*
X210050Y265000D01*
X212300D02*X214550D01*
X211550Y265750D02*X212300Y265000D01*
X211550Y267250D02*Y265750D01*
Y267250D02*X212300Y268000D01*
X213800D01*
X214550Y267250D01*
X211550Y266500D02*X214550D01*
Y267250D02*Y266500D01*
X216350Y268750D02*X217100D01*
X216350Y267250D02*X217100D01*
X221600Y265750D02*X222350Y265000D01*
X221600Y270250D02*X222350Y271000D01*
X221600Y270250D02*Y265750D01*
X224150Y268000D02*Y265750D01*
X224900Y265000D01*
X226400D01*
X227150Y265750D01*
Y268000D02*Y265750D01*
X229700Y267250D02*Y265000D01*
Y267250D02*X230450Y268000D01*
X231200D01*
X231950Y267250D01*
Y265000D01*
X228950Y268000D02*X229700Y267250D01*
X233750Y271000D02*Y265000D01*
Y267250D02*X236000Y265000D01*
X233750Y267250D02*X235250Y268750D01*
X238550Y267250D02*Y265000D01*
Y267250D02*X239300Y268000D01*
X240050D01*
X240800Y267250D01*
Y265000D01*
X237800Y268000D02*X238550Y267250D01*
X242600D02*Y265750D01*
Y267250D02*X243350Y268000D01*
X244850D01*
X245600Y267250D01*
Y265750D01*
X244850Y265000D02*X245600Y265750D01*
X243350Y265000D02*X244850D01*
X242600Y265750D02*X243350Y265000D01*
X247400Y268000D02*Y265750D01*
X248150Y265000D01*
X248900D01*
X249650Y265750D01*
Y268000D02*Y265750D01*
X250400Y265000D01*
X251150D01*
X251900Y265750D01*
Y268000D02*Y265750D01*
X254450Y267250D02*Y265000D01*
Y267250D02*X255200Y268000D01*
X255950D01*
X256700Y267250D01*
Y265000D01*
X253700Y268000D02*X254450Y267250D01*
X258500Y271000D02*X259250Y270250D01*
Y265750D01*
X258500Y265000D02*X259250Y265750D01*
X263750Y268000D02*X266750D01*
X271250Y271000D02*Y265000D01*
Y271000D02*X274250D01*
X271250Y268300D02*X273500D01*
X278300Y268000D02*X279050Y267250D01*
X276800Y268000D02*X278300D01*
X276050Y267250D02*X276800Y268000D01*
X276050Y267250D02*Y265750D01*
X276800Y265000D01*
X279050Y268000D02*Y265750D01*
X279800Y265000D01*
X276800D02*X278300D01*
X279050Y265750D01*
X281600Y271000D02*Y265000D01*
Y265750D02*X282350Y265000D01*
X283850D01*
X284600Y265750D01*
Y267250D02*Y265750D01*
X283850Y268000D02*X284600Y267250D01*
X282350Y268000D02*X283850D01*
X281600Y267250D02*X282350Y268000D01*
X287150Y267250D02*Y265000D01*
Y267250D02*X287900Y268000D01*
X289400D01*
X286400D02*X287150Y267250D01*
G54D35*X291200Y269500D02*Y269350D01*
G54D34*Y267250D02*Y265000D01*
X293450Y268000D02*X295700D01*
X292700Y267250D02*X293450Y268000D01*
X292700Y267250D02*Y265750D01*
X293450Y265000D01*
X295700D01*
X299750Y268000D02*X300500Y267250D01*
X298250Y268000D02*X299750D01*
X297500Y267250D02*X298250Y268000D01*
X297500Y267250D02*Y265750D01*
X298250Y265000D01*
X300500Y268000D02*Y265750D01*
X301250Y265000D01*
X298250D02*X299750D01*
X300500Y265750D01*
X303800Y271000D02*Y265750D01*
X304550Y265000D01*
X303050Y268750D02*X304550D01*
G54D35*X306050Y269500D02*Y269350D01*
G54D34*Y267250D02*Y265000D01*
X307550Y267250D02*Y265750D01*
Y267250D02*X308300Y268000D01*
X309800D01*
X310550Y267250D01*
Y265750D01*
X309800Y265000D02*X310550Y265750D01*
X308300Y265000D02*X309800D01*
X307550Y265750D02*X308300Y265000D01*
X313100Y267250D02*Y265000D01*
Y267250D02*X313850Y268000D01*
X314600D01*
X315350Y267250D01*
Y265000D01*
X312350Y268000D02*X313100Y267250D01*
X320600Y271000D02*Y265000D01*
X322550Y271000D02*X323600Y269950D01*
Y266050D01*
X322550Y265000D02*X323600Y266050D01*
X319850Y265000D02*X322550D01*
X319850Y271000D02*X322550D01*
X326150Y267250D02*Y265000D01*
Y267250D02*X326900Y268000D01*
X328400D01*
X325400D02*X326150Y267250D01*
X332450Y268000D02*X333200Y267250D01*
X330950Y268000D02*X332450D01*
X330200Y267250D02*X330950Y268000D01*
X330200Y267250D02*Y265750D01*
X330950Y265000D01*
X333200Y268000D02*Y265750D01*
X333950Y265000D01*
X330950D02*X332450D01*
X333200Y265750D01*
X335750Y268000D02*Y265750D01*
X336500Y265000D01*
X337250D01*
X338000Y265750D01*
Y268000D02*Y265750D01*
X338750Y265000D01*
X339500D01*
X340250Y265750D01*
Y268000D02*Y265750D01*
G54D35*X342050Y269500D02*Y269350D01*
G54D34*Y267250D02*Y265000D01*
X344300Y267250D02*Y265000D01*
Y267250D02*X345050Y268000D01*
X345800D01*
X346550Y267250D01*
Y265000D01*
X343550Y268000D02*X344300Y267250D01*
X350600Y268000D02*X351350Y267250D01*
X349100Y268000D02*X350600D01*
X348350Y267250D02*X349100Y268000D01*
X348350Y267250D02*Y265750D01*
X349100Y265000D01*
X350600D01*
X351350Y265750D01*
X348350Y263500D02*X349100Y262750D01*
X350600D01*
X351350Y263500D01*
Y268000D02*Y263500D01*
M02*
